<svg id="Layer_1" enable-background="new 0 0 512 512" height="512" viewBox="0 0 512 512" width="512" xmlns="http://www.w3.org/2000/svg"><g><path d="m297.379 386.016c2.884 2.624 1.813 7.421-1.935 8.494-91.176 26.117-183.444-42.632-183.444-138.51 0-95.855 92.243-164.636 183.443-138.511 3.748 1.074 4.819 5.87 1.935 8.494-76.526 69.63-76.426 190.486.001 260.033z"/><path d="m333.075 373.746c-81.327-57.318-81.291-178.198 0-235.493 1.751-1.234 4.079-1.235 5.832-.002 81.224 57.178 81.449 178.168 0 235.496-1.753 1.234-4.081 1.234-5.832-.001z"/><path d="m256 80c8.837 0 16-7.164 16-16v-48c0-8.836-7.163-16-16-16s-16 7.164-16 16v48c0 8.836 7.163 16 16 16z"/><path d="m256 432c-8.837 0-16 7.164-16 16v48c0 8.836 7.163 16 16 16s16-7.164 16-16v-48c0-8.836-7.163-16-16-16z"/><path d="m496 240h-48c-8.837 0-16 7.164-16 16s7.163 16 16 16h48c8.837 0 16-7.164 16-16s-7.163-16-16-16z"/><path d="m80 256c0-8.836-7.163-16-16-16h-48c-8.837 0-16 7.164-16 16s7.163 16 16 16h48c8.837 0 16-7.164 16-16z"/><path d="m391.765 136.235c4.095 0 8.189-1.563 11.313-4.686l33.941-33.941c6.249-6.249 6.249-16.379 0-22.627-6.247-6.249-16.378-6.248-22.627 0l-33.941 33.941c-10.108 10.107-2.812 27.313 11.314 27.313z"/><path d="m108.922 380.451-33.942 33.941c-6.249 6.249-6.249 16.379 0 22.627 6.246 6.248 16.377 6.249 22.627 0l33.941-33.941c6.249-6.249 6.249-16.379 0-22.627-6.246-6.248-16.377-6.247-22.626 0z"/><path d="m403.078 380.451c-6.248-6.248-16.379-6.249-22.627 0-6.249 6.248-6.249 16.379 0 22.627l33.941 33.941c3.124 3.124 7.219 4.686 11.313 4.686 14.126 0 21.422-17.206 11.313-27.314z"/><path d="m108.922 131.549c6.248 6.248 16.379 6.249 22.627 0 6.249-6.248 6.249-16.379 0-22.627l-33.942-33.942c-6.248-6.248-16.379-6.249-22.627 0-6.249 6.248-6.249 16.379 0 22.627z"/></g></svg>